<svg width="154" height="22" viewBox="0 0 154 22" fill="none" xmlns="http://www.w3.org/2000/svg">
<path d="M0.111406 13.0133C0.111406 11.4571 0.432361 10.076 1.07427 8.87003C1.73563 7.66401 2.61096 6.74005 3.71972 6.07869C4.84792 5.39788 6.08311 5.0672 7.43502 5.0672C8.66048 5.0672 9.7206 5.31035 10.6154 5.79664C11.5393 6.26348 12.2688 6.85676 12.8134 7.57648V5.32007H16.0522V20.8426H12.8134V18.5278C12.2688 19.2573 11.5296 19.87 10.5862 20.3563C9.6428 20.8426 8.57295 21.0858 7.37666 21.0858C6.04421 21.0858 4.81874 20.7454 3.70999 20.0743C2.60124 19.3837 1.71618 18.4209 1.06455 17.1954C0.432363 15.9797 0.111406 14.5791 0.111406 13.0133ZM12.8232 13.0716C12.8232 12.0018 12.5995 11.0681 12.1424 10.2803C11.7144 9.49248 11.1406 8.88948 10.4209 8.48099C9.71088 8.0725 8.9328 7.85853 8.1061 7.85853C7.2794 7.85853 6.51105 8.06277 5.79133 8.48099C5.08134 8.87975 4.49779 9.46331 4.04067 10.2608C3.61273 11.0292 3.38904 11.9531 3.38904 13.023C3.38904 14.0928 3.60301 15.0363 4.04067 15.8435C4.48806 16.6508 5.07162 17.2732 5.79133 17.7011C6.52078 18.1096 7.29885 18.3236 8.1061 18.3236C8.9328 18.3236 9.70115 18.1194 10.4209 17.7011C11.1309 17.2927 11.7047 16.6897 12.1424 15.9019C12.5897 15.0849 12.8232 14.1415 12.8232 13.0716ZM23.0451 7.94606V16.5438C23.0451 17.1273 23.1813 17.5455 23.4439 17.8081C23.7259 18.0513 24.1927 18.1777 24.8541 18.1777H26.8187V20.8523H24.2803C22.8311 20.8523 21.7224 20.5119 20.954 19.8408C20.1857 19.16 19.7966 18.061 19.7966 16.5438V7.94606H17.9682V5.3298H19.7966V1.46861H23.0354V5.3298H26.8187V7.94606H23.0451ZM43.0221 12.7118C43.0221 13.2953 42.9832 13.8205 42.9054 14.2874H31.0398C31.137 15.5225 31.5942 16.5243 32.4209 17.2732C33.2476 18.0221 34.2591 18.4014 35.4651 18.4014C37.1963 18.4014 38.412 17.6817 39.1317 16.2325H42.5942C42.1273 17.6622 41.2714 18.8391 40.0265 19.7533C38.8011 20.6578 37.2838 21.1052 35.4651 21.1052C33.977 21.1052 32.6446 20.7745 31.4677 20.1229C30.3006 19.4421 29.3864 18.5084 28.7056 17.3024C28.0442 16.0769 27.7233 14.6764 27.7233 13.0716C27.7233 11.4668 28.0442 10.076 28.6861 8.87003C29.3475 7.64456 30.252 6.71087 31.4191 6.04951C32.6057 5.38815 33.9576 5.0672 35.4748 5.0672C36.9434 5.0672 38.2467 5.38815 39.3943 6.03006C40.542 6.67197 41.4368 7.56675 42.069 8.73386C42.7011 9.88152 43.0221 11.2042 43.0221 12.7118ZM39.6667 11.6905C39.6472 10.504 39.229 9.56057 38.4023 8.84085C37.5756 8.13086 36.5544 7.771 35.3289 7.771C34.2202 7.771 33.267 8.13086 32.4792 8.84085C31.6914 9.53139 31.2246 10.4845 31.069 11.6905H39.6667ZM53.0301 5.0672C54.2555 5.0672 55.3448 5.32007 56.298 5.82582C57.2706 6.33156 58.0389 7.08046 58.5835 8.08223C59.1282 9.07427 59.4005 10.2803 59.4005 11.6905V20.8523H56.2202V12.1768C56.2202 10.786 55.87 9.72591 55.1795 8.99646C54.4889 8.24757 53.5358 7.86826 52.3298 7.86826C51.1238 7.86826 50.1706 8.24757 49.4509 8.99646C48.7604 9.71618 48.4103 10.786 48.4103 12.1768V20.8523H45.2007V5.32007H48.4103V7.09991C48.9355 6.458 49.6065 5.96198 50.4138 5.60212C51.2405 5.25199 52.1158 5.0672 53.0301 5.0672ZM61.443 13.0133C61.443 11.4571 61.7639 10.076 62.4058 8.87003C63.0672 7.66401 63.9425 6.74005 65.0513 6.07869C66.1795 5.39788 67.4147 5.0672 68.7666 5.0672C69.992 5.0672 71.0522 5.31035 71.9469 5.79664C72.8709 6.26348 73.6003 6.85676 74.145 7.57648V5.32007H77.3837V20.8426H74.145V18.5278C73.6003 19.2573 72.8612 19.87 71.9178 20.3563C70.9744 20.8426 69.9045 21.0858 68.7082 21.0858C67.3758 21.0858 66.1503 20.7454 65.0416 20.0743C63.9328 19.3837 63.0477 18.4209 62.3961 17.1954C61.7639 15.9797 61.443 14.5791 61.443 13.0133ZM74.1547 13.0716C74.1547 12.0018 73.931 11.0681 73.4739 10.2803C73.046 9.49248 72.4721 8.88948 71.7524 8.48099C71.0424 8.0725 70.2644 7.85853 69.4377 7.85853C68.611 7.85853 67.8426 8.06277 67.1229 8.48099C66.4129 8.87975 65.8294 9.46331 65.3722 10.2608C64.9443 11.0292 64.7206 11.9531 64.7206 13.023C64.7206 14.0928 64.9346 15.0363 65.3722 15.8435C65.8196 16.6508 66.4032 17.2732 67.1229 17.7011C67.8523 18.1096 68.6304 18.3236 69.4377 18.3236C70.2644 18.3236 71.0327 18.1194 71.7524 17.7011C72.4624 17.2927 73.0362 16.6897 73.4739 15.9019C73.9213 15.0849 74.1547 14.1415 74.1547 13.0716ZM99.6074 1.26437V3.88064H94.3943V20.8426H91.1848V3.89036H85.9425V1.27409H99.6074V1.26437ZM108.614 21.1052C107.145 21.1052 105.822 20.7745 104.636 20.1229C103.449 19.4421 102.525 18.5084 101.844 17.3024C101.164 16.0769 100.833 14.6764 100.833 13.0716C100.833 11.496 101.183 10.0955 101.874 8.87003C102.564 7.64456 103.517 6.71087 104.723 6.04951C105.929 5.38815 107.271 5.0672 108.75 5.0672C110.228 5.0672 111.58 5.39788 112.776 6.04951C113.982 6.71087 114.926 7.64456 115.626 8.87003C116.317 10.0955 116.667 11.4863 116.667 13.0716C116.667 14.6569 116.307 16.0477 115.597 17.2732C114.887 18.4987 113.904 19.4421 112.669 20.1229C111.454 20.7745 110.102 21.1052 108.614 21.1052ZM108.614 18.3139C109.44 18.3139 110.209 18.1194 110.928 17.7206C111.658 17.3218 112.251 16.7383 112.708 15.9408C113.156 15.153 113.389 14.1901 113.389 13.0619C113.389 11.9337 113.175 10.9903 112.737 10.2122C112.309 9.4244 111.736 8.83112 111.016 8.43236C110.306 8.0336 109.528 7.83908 108.701 7.83908C107.874 7.83908 107.106 8.0336 106.386 8.43236C105.696 8.83112 105.141 9.41468 104.723 10.2122C104.315 10.9805 104.101 11.9337 104.101 13.0619C104.101 14.7347 104.519 16.0283 105.365 16.9523C106.24 17.8665 107.32 18.3139 108.614 18.3139ZM125.595 21.1052C124.126 21.1052 122.804 20.7745 121.617 20.1229C120.431 19.4421 119.507 18.5084 118.826 17.3024C118.145 16.0769 117.814 14.6764 117.814 13.0716C117.814 11.496 118.164 10.0955 118.855 8.87003C119.546 7.64456 120.499 6.71087 121.705 6.04951C122.911 5.38815 124.253 5.0672 125.731 5.0672C127.219 5.0672 128.561 5.39788 129.758 6.04951C130.964 6.71087 131.907 7.64456 132.607 8.87003C133.298 10.0955 133.648 11.4863 133.648 13.0716C133.648 14.6569 133.288 16.0477 132.578 17.2732C131.868 18.4987 130.886 19.4421 129.651 20.1229C128.435 20.7745 127.083 21.1052 125.595 21.1052ZM125.595 18.3139C126.422 18.3139 127.19 18.1194 127.91 17.7206C128.639 17.3218 129.233 16.7383 129.69 15.9408C130.137 15.153 130.37 14.1901 130.37 13.0619C130.37 11.9337 130.156 10.9903 129.719 10.2122C129.291 9.4244 128.717 8.83112 127.997 8.43236C127.287 8.0336 126.509 7.83908 125.683 7.83908C124.856 7.83908 124.088 8.0336 123.368 8.43236C122.677 8.83112 122.123 9.41468 121.705 10.2122C121.296 10.9805 121.082 11.9337 121.082 13.0619C121.082 14.7347 121.5 16.0283 122.347 16.9523C123.222 17.8665 124.301 18.3139 125.595 18.3139ZM139.056 0V20.8523H135.846V0H139.056ZM147.926 21.1052C146.7 21.1052 145.601 20.8912 144.629 20.4536C143.666 20.0062 142.907 19.4032 142.343 18.6543C141.779 17.8859 141.477 17.0301 141.439 16.0866H144.765C144.823 16.748 145.134 17.3024 145.698 17.7498C146.282 18.1777 147.002 18.4014 147.867 18.4014C148.772 18.4014 149.462 18.2361 149.949 17.8957C150.454 17.5358 150.707 17.0884 150.707 16.5438C150.707 15.9602 150.425 15.5323 149.861 15.2502C149.317 14.9682 148.441 14.6569 147.245 14.3165C146.078 13.9956 145.134 13.6844 144.395 13.3828C143.666 13.0813 143.024 12.6242 142.479 12.0018C141.954 11.3793 141.691 10.5623 141.691 9.55084C141.691 8.72414 141.935 7.97524 142.421 7.29443C142.907 6.60389 143.607 6.05924 144.502 5.66048C145.426 5.26171 146.477 5.0672 147.663 5.0672C149.433 5.0672 150.843 5.51459 151.923 6.4191C153.012 7.30416 153.596 8.51017 153.674 10.0566H150.464C150.406 9.36605 150.124 8.81167 149.618 8.39346C149.112 7.98497 148.422 7.771 147.556 7.771C146.71 7.771 146.058 7.92661 145.611 8.24757C145.164 8.56852 144.93 8.98674 144.93 9.51194C144.93 9.92042 145.076 10.2706 145.378 10.5526C145.679 10.8347 146.049 11.0584 146.477 11.2334C146.905 11.3793 147.546 11.5836 148.393 11.8267C149.521 12.1282 150.445 12.4394 151.155 12.7604C151.884 13.0619 152.516 13.5093 153.042 14.1123C153.567 14.7153 153.839 15.5128 153.859 16.5049C153.859 17.3899 153.615 18.1777 153.129 18.8683C152.643 19.5588 151.943 20.1035 151.048 20.5022C150.172 20.9107 149.132 21.1052 147.926 21.1052Z" fill="black"/>
</svg>
