<svg width="20" height="20" viewBox="0 0 20 20" fill="none" xmlns="http://www.w3.org/2000/svg">
<path d="M0 9.99823C0 8.08223 0.437666 6.36074 1.32272 4.8435C2.22723 3.32626 3.43325 2.1397 4.96021 1.29354C6.49691 0.427939 8.17949 0 10.008 0C12.0893 0 13.947 0.515472 15.5615 1.54642C17.1954 2.55791 18.382 4.00707 19.1114 5.88417H15.2502C14.7445 4.85323 14.0345 4.08488 13.1397 3.56941C12.2352 3.06366 11.1945 2.81079 10.008 2.81079C8.71441 2.81079 7.55703 3.10256 6.54553 3.68612C5.53404 4.26967 4.73652 5.1061 4.15296 6.1954C3.58886 7.2847 3.30681 8.54907 3.30681 9.99823C3.30681 11.4474 3.58886 12.7118 4.15296 13.8011C4.73652 14.8904 5.53404 15.7365 6.54553 16.3395C7.55703 16.9231 8.71441 17.2149 10.008 17.2149C11.1945 17.2149 12.2352 16.962 13.1397 16.4562C14.0442 15.9505 14.7445 15.1821 15.2502 14.1415H19.1114C18.382 16.0186 17.1954 17.4677 15.5615 18.4792C13.947 19.4907 12.099 19.9965 10.008 19.9965C8.16976 19.9965 6.48718 19.5783 4.96021 18.7321C3.44297 17.8665 2.22723 16.6702 1.32272 15.153C0.437666 13.6357 0 11.9142 0 9.99823Z" fill="black"/>
</svg>
