<svg width="187" height="42" viewBox="0 0 187 42" fill="none" xmlns="http://www.w3.org/2000/svg">
<path d="M183.137 32.2544V8.70117H187V32.2544H183.137Z" fill="#151515"/>
<path d="M159.704 23.6464V8.70117H163.568V23.7142C163.568 27.3743 165.635 29.1026 168.889 29.1026C172.176 29.1026 174.243 27.3743 174.243 23.7142V8.70117H178.106V23.6464C178.106 29.6449 173.769 32.4916 168.855 32.4916C163.907 32.4916 159.704 29.6449 159.704 23.6464Z" fill="#151515"/>
<path d="M150.595 22.4265V32.2545H146.732V13.5814H150.595V16.2925C151.68 14.4286 153.544 13.2764 156.187 13.2764V17.2753H155.204C152.358 17.2753 150.595 18.4615 150.595 22.4265Z" fill="#151515"/>
<path d="M133.678 16.5298C131.069 16.5298 128.967 18.292 128.561 21.2404H138.897C138.829 18.3598 136.559 16.5298 133.678 16.5298ZM142.422 26.6966C141.371 29.95 138.423 32.5595 133.847 32.5595C128.493 32.5595 124.528 28.7639 124.528 22.901C124.528 17.0381 128.324 13.2764 133.847 13.2764C139.168 13.2764 142.93 16.9703 142.93 22.4604C142.93 23.1043 142.896 23.7143 142.794 24.3582H128.527C128.798 27.4422 131.001 29.3061 133.847 29.3061C136.22 29.3061 137.541 28.1538 138.253 26.6966H142.422Z" fill="#151515"/>
<path d="M113.816 27.0693V16.7331H111.614V13.5813H113.816V8.93848H117.714V13.5813H122.255V16.7331H117.714V27.0693C117.714 28.4588 118.256 29.0349 119.883 29.0349H122.255V32.2544H119.205C115.884 32.2544 113.816 30.865 113.816 27.0693Z" fill="#151515"/>
<path d="M109.032 27.0355C109.032 30.1872 106.287 32.5595 101.881 32.5595C97.4078 32.5595 94.2561 29.9161 94.0867 26.5271H98.0856C98.2212 28.0522 99.6784 29.3061 101.813 29.3061C104.05 29.3061 105.236 28.3572 105.236 27.0694C105.236 23.4093 94.3917 25.5105 94.3917 18.6648C94.3917 15.6825 97.1706 13.2764 101.576 13.2764C105.812 13.2764 108.591 15.547 108.795 19.2748H104.931C104.796 17.6481 103.542 16.5298 101.441 16.5298C99.3734 16.5298 98.289 17.377 98.289 18.6309C98.289 22.3926 108.829 20.2915 109.032 27.0355Z" fill="#151515"/>
<path d="M70.8475 22.8332C70.8475 17.072 74.7448 13.2764 79.6588 13.2764C82.8105 13.2764 84.9795 14.7675 86.1317 16.2925V13.5814H90.029V32.2545H86.1317V29.4755C84.9456 31.0683 82.7089 32.5595 79.591 32.5595C74.7448 32.5595 70.8475 28.5944 70.8475 22.8332ZM86.1317 22.901C86.1317 18.902 83.3867 16.6314 80.4722 16.6314C77.5916 16.6314 74.8126 18.8004 74.8126 22.8332C74.8126 26.866 77.5916 29.2044 80.4722 29.2044C83.3867 29.2044 86.1317 26.9338 86.1317 22.901Z" fill="#151515"/>
<path d="M54.6942 32.2544V8.70117H68.555V11.8529H58.5576V18.8002H66.3522V21.952H58.5576V32.2544H54.6942Z" fill="#151515"/>
<path d="M30.7656 0C36.4292 7.6053e-05 41.0204 4.59129 41.0205 10.2549V30.7656C41.0204 36.4293 36.4293 41.0204 30.7656 41.0205H10.2549C4.59129 41.0204 7.47339e-05 36.4292 0 30.7656V10.2549C0.000152333 4.59134 4.59134 0.000151008 10.2549 0H30.7656ZM21.6387 9.25684C21.5364 9.22138 21.425 9.22077 21.3223 9.25488C21.2193 9.28909 21.1306 9.35594 21.0713 9.44531L13.4033 22.625C13.3585 22.6965 13.3338 22.7784 13.332 22.8623C13.3303 22.9462 13.3508 23.0293 13.3926 23.1025C13.4343 23.1758 13.4955 23.2368 13.5693 23.2793C13.643 23.3217 13.727 23.3437 13.8125 23.3438H20.0244L19.1865 31.2793C19.1783 31.385 19.2068 31.4909 19.2666 31.5791C19.3264 31.6672 19.4143 31.7332 19.5166 31.7666C19.619 31.8 19.7304 31.7992 19.832 31.7637C19.9338 31.7281 20.0213 31.6598 20.0791 31.5703L27.6201 18.3926C27.6639 18.3209 27.6875 18.2388 27.6885 18.1553C27.6894 18.0719 27.6679 17.9895 27.626 17.917C27.5841 17.8446 27.5235 17.7842 27.4502 17.7422C27.3768 17.7002 27.293 17.6778 27.208 17.6777H20.9014L21.959 9.75391C21.9703 9.64793 21.9447 9.5413 21.8867 9.45117C21.8287 9.36101 21.7411 9.29246 21.6387 9.25684Z" fill="#151515"/>
</svg>
